<svg width="1531" height="423" viewBox="0 0 1531 423" fill="none" xmlns="http://www.w3.org/2000/svg">
<mask id="mask0_1_3" style="mask-type:luminance" maskUnits="userSpaceOnUse" x="0" y="0" width="1531" height="423">
<path d="M243.086 422.979C210.999 422.979 179.701 417.605 150.062 407.008C120.416 396.412 93.8835 381.109 71.1993 361.53C48.5086 341.947 30.7794 319.046 18.5043 293.466C6.22658 267.886 0.000895802 240.874 0 213.182L0.0005077 209.794C0.000891616 182.103 6.22658 155.091 18.5043 129.512C30.7819 103.928 48.5111 81.0276 71.2005 61.4486C93.8822 41.8695 120.416 26.567 150.063 15.9696C179.703 5.37325 211.001 -9.0776e-06 243.086 -9.0776e-06H1287.9C1320 -9.0776e-06 1351.29 5.37322 1380.94 15.9707C1410.58 26.567 1437.12 41.8684 1459.8 61.4496C1482.49 81.0287 1500.21 103.929 1512.5 129.513C1524.77 155.098 1531 182.11 1531 209.796V213.177C1531 240.873 1524.77 267.886 1512.5 293.467C1500.22 319.049 1482.49 341.949 1459.8 361.531C1437.11 381.112 1410.58 396.414 1380.94 407.009C1351.29 417.605 1320 422.979 1287.9 422.979H243.086Z" fill="white"/>
</mask>
<g mask="url(#mask0_1_3)">
<path d="M243.086 422.979C210.999 422.979 179.701 417.605 150.062 407.008C120.416 396.412 93.8835 381.109 71.1993 361.53C48.5086 341.947 30.7794 319.046 18.5043 293.466C6.22658 267.886 0.000895802 240.874 0 213.182L0.0005077 209.794C0.000891616 182.103 6.22658 155.091 18.5043 129.512C30.7819 103.928 48.5111 81.0276 71.2005 61.4486C93.8822 41.8695 120.416 26.567 150.063 15.9696C179.703 5.37325 211.001 -9.0776e-06 243.086 -9.0776e-06H1287.9C1320 -9.0776e-06 1351.29 5.37322 1380.94 15.9707C1410.58 26.567 1437.12 41.8684 1459.8 61.4496C1482.49 81.0287 1500.21 103.929 1512.5 129.513C1524.77 155.098 1531 182.11 1531 209.796V213.177C1531 240.873 1524.77 267.886 1512.5 293.467C1500.22 319.049 1482.49 341.949 1459.8 361.531C1437.11 381.112 1410.58 396.414 1380.94 407.009C1351.29 417.605 1320 422.979 1287.9 422.979H243.086Z" fill="url(#paint0_linear_1_3)"/>
</g>
<mask id="mask1_1_3" style="mask-type:luminance" maskUnits="userSpaceOnUse" x="31" y="27" width="1469" height="369">
<path d="M1499.62 213.182C1499.62 237.298 1494.2 260.823 1483.51 283.106C1472.81 305.387 1457.38 325.33 1437.62 342.384C1417.86 359.437 1394.75 372.763 1368.92 381.99C1343.11 391.221 1315.85 395.899 1287.9 395.899H243.086C215.143 395.901 187.885 391.219 162.067 381.99C136.251 372.763 113.143 359.437 93.3844 342.384C73.6243 325.33 58.1858 305.387 47.4899 283.106C36.7992 260.824 31.377 237.298 31.377 213.182V209.798C31.3757 185.681 36.7992 162.156 47.4899 139.875C58.1858 117.593 73.6243 97.651 93.3832 80.5968C113.143 63.5404 136.251 50.216 162.067 40.9859C187.885 31.7591 215.144 27.0794 243.086 27.0794H1287.9C1315.85 27.0794 1343.11 31.7591 1368.94 40.9859C1394.75 50.216 1417.85 63.5404 1437.62 80.5946C1457.38 97.6488 1472.81 117.591 1483.5 139.875C1494.2 162.156 1499.62 185.681 1499.62 209.796V213.182Z" fill="white"/>
</mask>
<g mask="url(#mask1_1_3)">
<path d="M1499.62 213.182C1499.62 237.298 1494.2 260.823 1483.51 283.106C1472.81 305.387 1457.38 325.33 1437.62 342.384C1417.86 359.437 1394.75 372.763 1368.92 381.99C1343.11 391.221 1315.85 395.899 1287.9 395.899H243.086C215.143 395.901 187.885 391.219 162.067 381.99C136.251 372.763 113.143 359.437 93.3844 342.384C73.6243 325.33 58.1858 305.387 47.4899 283.106C36.7992 260.824 31.377 237.298 31.377 213.182V209.798C31.3757 185.681 36.7992 162.156 47.4899 139.875C58.1858 117.593 73.6243 97.651 93.3832 80.5968C113.143 63.5404 136.251 50.216 162.067 40.9859C187.885 31.7591 215.144 27.0794 243.086 27.0794H1287.9C1315.85 27.0794 1343.11 31.7591 1368.94 40.9859C1394.75 50.216 1417.85 63.5404 1437.62 80.5946C1457.38 97.6488 1472.81 117.591 1483.5 139.875C1494.2 162.156 1499.62 185.681 1499.62 209.796V213.182Z" fill="url(#paint1_linear_1_3)"/>
</g>
<defs>
<linearGradient id="paint0_linear_1_3" x1="765.499" y1="3.66717e-06" x2="765.499" y2="422.98" gradientUnits="userSpaceOnUse">
<stop stop-color="#27AAF2"/>
<stop offset="1" stop-color="#1B75B2"/>
</linearGradient>
<linearGradient id="paint1_linear_1_3" x1="765.499" y1="395.899" x2="765.499" y2="27.0805" gradientUnits="userSpaceOnUse">
<stop stop-color="#27AAF2"/>
<stop offset="1" stop-color="#1B75B2"/>
</linearGradient>
</defs>
</svg>
